# xmcd CD database file
#
# Track frame offsets:
#	150
#	11458
#	20629
#	29947
#	39636
#	50383
#	60399
#	69849
#	78914
#	91125
#	100475
#	108311
#	119718
#	131560
#	142650
#	153802
#	161381
#	171034
#	181548
#	192736
#	200815
#	211064
#	219843
#	229810
#	242080
#	251328
#	260643
#	269571
#	280114
#	289164
#	299645
#	308714
#	316883
#	326444
#	334998
#
# Disc length: 4590 seconds
#
# Revision: 1
# Processed by: cddbd v1.5.2PL0 Copyright (c) Steve Scherf et al.
# Submitted via: CDex 1.70beta2
#
DISCID=fd11ec23
DTITLE=Various Artist - Great Rockabilly - Just about as good as it gets! Vol.3 CD1
DYEAR=2009
DGENRE=Rockabilly
TTITLE0=Don Willis - Boppin' High School Baby
TTITLE1=Johnny Burnette and The Rock 'n' Roll Trio - Honey Hush
TTITLE2=Ricky Nelson - Believe What You Say
TTITLE3=Janis Martin - My Boy Elvis
TTITLE4=Gene Vincent and The Blue Caps - Blue Jean Bop
TTITLE5=Elvis Presley - Good Rockin' Tonight
TTITLE6=Luke McDaniel - Huh Baby
TTITLE7=Buddy Holly - Blue Days, Black Nights
TTITLE8=Glen Glenn - Everybody's Moving
TTITLE9=Ronnie Self - Bop A Lena
TTITLE10=Wanda Jackson - Rock Your Baby
TTITLE11=Billy Lee Riley - Red Hot
TTITLE12=Carl Perkins - Gone Gone Gone
TTITLE13=Billy Adams - You Gotta Have A Ducktail
TTITLE14=Tommy Sands - The Worrying Kind
TTITLE15=Bob Luman - All Night Long
TTITLE16=Jack Scott - Leroy
TTITLE17=Billy 'Crash' Craddock - Ah Poor Little Baby
TTITLE18=Billy Brown - Flip Out
TTITLE19=Eddie Cochran - Cradle Baby
TTITLE20=Jimmy Pritchett - That's The Way I Feel
TTITLE21=Curtis Gordon - Rock Roll Jump Jive
TTITLE22=Red Foley - Crazy Little Guitar Man
TTITLE23=Jerry Reed - I'm Stuck
TTITLE24=Bobby Lee Trammell - You The Mostest Girl
TTITLE25=Rudy Grayzell - Judy
TTITLE26=Skeets McDonald - You're There
TTITLE27=Gene Simmons - I Done Told You
TTITLE28=John T Talley - I've Changed My Wild Mind
TTITLE29=Justin Tubb - Rock It On Down To My House
TTITLE30=Johnny Cash - Blue Train
TTITLE31=Dub Dickerson - (I Think) I'm Falling In Love
TTITLE32=Ray Sharpe - Oh My Baby's Gone
TTITLE33=Al Casey - Willa Mae
TTITLE34=Johnny Strickland - She's Mine
EXTD=YEAR: 2009
EXTT0=
EXTT1=
EXTT2=
EXTT3=
EXTT4=
EXTT5=
EXTT6=
EXTT7=
EXTT8=
EXTT9=
EXTT10=
EXTT11=
EXTT12=
EXTT13=
EXTT14=
EXTT15=
EXTT16=
EXTT17=
EXTT18=
EXTT19=
EXTT20=
EXTT21=
EXTT22=
EXTT23=
EXTT24=
EXTT25=
EXTT26=
EXTT27=
EXTT28=
EXTT29=
EXTT30=
EXTT31=
EXTT32=
EXTT33=
EXTT34=
PLAYORDER=
